# BlenderRenderServer Special Heart Hands Model
o HeartHands
mtllib heart_hands.mtl
usemtl SkinMat
v 0.0000 -0.2250 0.2800
v 0.0067 -0.2250 0.3226
v 0.0502 -0.2250 0.4317
v 0.1536 -0.2250 0.5596
v 0.3168 -0.2250 0.6500
v 0.5150 -0.2250 0.6611
v 0.7066 -0.2250 0.5801
v 0.8453 -0.2250 0.4233
v 0.8960 -0.2250 0.2240
v 0.8453 -0.2250 0.0148
v 0.7066 -0.2250 -0.1841
v 0.5150 -0.2250 -0.3676
v 0.3168 -0.2250 -0.5380
v 0.1536 -0.2250 -0.6947
v 0.0502 -0.2250 -0.8277
v 0.0067 -0.2250 -0.9192
v 0.0000 -0.2250 -0.9520
v -0.0067 -0.2250 -0.9192
v -0.0502 -0.2250 -0.8277
v -0.1536 -0.2250 -0.6947
v -0.3168 -0.2250 -0.5380
v -0.5150 -0.2250 -0.3676
v -0.7066 -0.2250 -0.1841
v -0.8453 -0.2250 0.0148
v -0.8960 -0.2250 0.2240
v -0.8453 -0.2250 0.4233
v -0.7066 -0.2250 0.5801
v -0.5150 -0.2250 0.6611
v -0.3168 -0.2250 0.6500
v -0.1536 -0.2250 0.5596
v -0.0502 -0.2250 0.4317
v -0.0067 -0.2250 0.3226
v 0.0000 -0.0298 0.3321
v 0.0079 -0.0298 0.3826
v 0.0596 -0.0298 0.5120
v 0.1822 -0.0298 0.6637
v 0.3757 -0.0298 0.7708
v 0.6108 -0.0298 0.7840
v 0.8380 -0.0298 0.6879
v 1.0025 -0.0298 0.5021
v 1.0626 -0.0298 0.2657
v 1.0025 -0.0298 0.0176
v 0.8380 -0.0298 -0.2183
v 0.6108 -0.0298 -0.4359
v 0.3757 -0.0298 -0.6380
v 0.1822 -0.0298 -0.8239
v 0.0596 -0.0298 -0.9816
v 0.0079 -0.0298 -1.0901
v 0.0000 -0.0298 -1.1290
v -0.0079 -0.0298 -1.0901
v -0.0596 -0.0298 -0.9816
v -0.1822 -0.0298 -0.8239
v -0.3757 -0.0298 -0.6380
v -0.6108 -0.0298 -0.4359
v -0.8380 -0.0298 -0.2183
v -1.0025 -0.0298 0.0176
v -1.0626 -0.0298 0.2657
v -1.0025 -0.0298 0.5021
v -0.8380 -0.0298 0.6879
v -0.6108 -0.0298 0.7840
v -0.3757 -0.0298 0.7708
v -0.1822 -0.0298 0.6637
v -0.0596 -0.0298 0.5120
v -0.0079 -0.0298 0.3826
v 0.0000 0.1268 0.3738
v 0.0089 0.1268 0.4307
v 0.0670 0.1268 0.5764
v 0.2051 0.1268 0.7471
v 0.4229 0.1268 0.8678
v 0.6876 0.1268 0.8826
v 0.9433 0.1268 0.7744
v 1.1286 0.1268 0.5652
v 1.1962 0.1268 0.2991
v 1.1286 0.1268 0.0198
v 0.9433 0.1268 -0.2458
v 0.6876 0.1268 -0.4907
v 0.4229 0.1268 -0.7182
v 0.2051 0.1268 -0.9275
v 0.0670 0.1268 -1.1051
v 0.0089 0.1268 -1.2272
v 0.0000 0.1268 -1.2710
v -0.0089 0.1268 -1.2272
v -0.0670 0.1268 -1.1051
v -0.2051 0.1268 -0.9275
v -0.4229 0.1268 -0.7182
v -0.6876 0.1268 -0.4907
v -0.9433 0.1268 -0.2458
v -1.1286 0.1268 0.0198
v -1.1962 0.1268 0.2991
v -1.1286 0.1268 0.5652
v -0.9433 0.1268 0.7744
v -0.6876 0.1268 0.8826
v -0.4229 0.1268 0.8678
v -0.2051 0.1268 0.7471
v -0.0670 0.1268 0.5764
v -0.0089 0.1268 0.4307
v 0.0000 0.2137 0.3970
v 0.0094 0.2137 0.4574
v 0.0712 0.2137 0.6121
v 0.2178 0.2137 0.7934
v 0.4491 0.2137 0.9215
v 0.7302 0.2137 0.9373
v 1.0018 0.2137 0.8224
v 1.1985 0.2137 0.6002
v 1.2704 0.2137 0.3176
v 1.1985 0.2137 0.0210
v 1.0018 0.2137 -0.2610
v 0.7302 0.2137 -0.5211
v 0.4491 0.2137 -0.7627
v 0.2178 0.2137 -0.9850
v 0.0712 0.2137 -1.1736
v 0.0094 0.2137 -1.3032
v 0.0000 0.2137 -1.3498
v -0.0094 0.2137 -1.3032
v -0.0712 0.2137 -1.1736
v -0.2178 0.2137 -0.9850
v -0.4491 0.2137 -0.7627
v -0.7302 0.2137 -0.5211
v -1.0018 0.2137 -0.2610
v -1.1985 0.2137 0.0210
v -1.2704 0.2137 0.3176
v -1.1985 0.2137 0.6002
v -1.0018 0.2137 0.8224
v -0.7302 0.2137 0.9373
v -0.4491 0.2137 0.9215
v -0.2178 0.2137 0.7934
v -0.0712 0.2137 0.6121
v -0.0094 0.2137 0.4574
v 0.0000 0.2137 0.3970
v 0.0094 0.2137 0.4574
v 0.0712 0.2137 0.6121
v 0.2178 0.2137 0.7934
v 0.4491 0.2137 0.9215
v 0.7302 0.2137 0.9373
v 1.0018 0.2137 0.8224
v 1.1985 0.2137 0.6002
v 1.2704 0.2137 0.3176
v 1.1985 0.2137 0.0210
v 1.0018 0.2137 -0.2610
v 0.7302 0.2137 -0.5211
v 0.4491 0.2137 -0.7627
v 0.2178 0.2137 -0.9850
v 0.0712 0.2137 -1.1736
v 0.0094 0.2137 -1.3032
v 0.0000 0.2137 -1.3498
v -0.0094 0.2137 -1.3032
v -0.0712 0.2137 -1.1736
v -0.2178 0.2137 -0.9850
v -0.4491 0.2137 -0.7627
v -0.7302 0.2137 -0.5211
v -1.0018 0.2137 -0.2610
v -1.1985 0.2137 0.0210
v -1.2704 0.2137 0.3176
v -1.1985 0.2137 0.6002
v -1.0018 0.2137 0.8224
v -0.7302 0.2137 0.9373
v -0.4491 0.2137 0.9215
v -0.2178 0.2137 0.7934
v -0.0712 0.2137 0.6121
v -0.0094 0.2137 0.4574
v 0.0000 0.1268 0.3738
v 0.0089 0.1268 0.4307
v 0.0670 0.1268 0.5764
v 0.2051 0.1268 0.7471
v 0.4229 0.1268 0.8678
v 0.6876 0.1268 0.8826
v 0.9433 0.1268 0.7744
v 1.1286 0.1268 0.5652
v 1.1962 0.1268 0.2991
v 1.1286 0.1268 0.0198
v 0.9433 0.1268 -0.2458
v 0.6876 0.1268 -0.4907
v 0.4229 0.1268 -0.7182
v 0.2051 0.1268 -0.9275
v 0.0670 0.1268 -1.1051
v 0.0089 0.1268 -1.2272
v 0.0000 0.1268 -1.2710
v -0.0089 0.1268 -1.2272
v -0.0670 0.1268 -1.1051
v -0.2051 0.1268 -0.9275
v -0.4229 0.1268 -0.7182
v -0.6876 0.1268 -0.4907
v -0.9433 0.1268 -0.2458
v -1.1286 0.1268 0.0198
v -1.1962 0.1268 0.2991
v -1.1286 0.1268 0.5652
v -0.9433 0.1268 0.7744
v -0.6876 0.1268 0.8826
v -0.4229 0.1268 0.8678
v -0.2051 0.1268 0.7471
v -0.0670 0.1268 0.5764
v -0.0089 0.1268 0.4307
v 0.0000 -0.0298 0.3321
v 0.0079 -0.0298 0.3826
v 0.0596 -0.0298 0.5120
v 0.1822 -0.0298 0.6637
v 0.3757 -0.0298 0.7708
v 0.6108 -0.0298 0.7840
v 0.8380 -0.0298 0.6879
v 1.0025 -0.0298 0.5021
v 1.0626 -0.0298 0.2657
v 1.0025 -0.0298 0.0176
v 0.8380 -0.0298 -0.2183
v 0.6108 -0.0298 -0.4359
v 0.3757 -0.0298 -0.6380
v 0.1822 -0.0298 -0.8239
v 0.0596 -0.0298 -0.9816
v 0.0079 -0.0298 -1.0901
v 0.0000 -0.0298 -1.1290
v -0.0079 -0.0298 -1.0901
v -0.0596 -0.0298 -0.9816
v -0.1822 -0.0298 -0.8239
v -0.3757 -0.0298 -0.6380
v -0.6108 -0.0298 -0.4359
v -0.8380 -0.0298 -0.2183
v -1.0025 -0.0298 0.0176
v -1.0626 -0.0298 0.2657
v -1.0025 -0.0298 0.5021
v -0.8380 -0.0298 0.6879
v -0.6108 -0.0298 0.7840
v -0.3757 -0.0298 0.7708
v -0.1822 -0.0298 0.6637
v -0.0596 -0.0298 0.5120
v -0.0079 -0.0298 0.3826
v 0.0000 -0.2250 0.2800
v 0.0067 -0.2250 0.3226
v 0.0502 -0.2250 0.4317
v 0.1536 -0.2250 0.5596
v 0.3168 -0.2250 0.6500
v 0.5150 -0.2250 0.6611
v 0.7066 -0.2250 0.5801
v 0.8453 -0.2250 0.4233
v 0.8960 -0.2250 0.2240
v 0.8453 -0.2250 0.0148
v 0.7066 -0.2250 -0.1841
v 0.5150 -0.2250 -0.3676
v 0.3168 -0.2250 -0.5380
v 0.1536 -0.2250 -0.6947
v 0.0502 -0.2250 -0.8277
v 0.0067 -0.2250 -0.9192
v 0.0000 -0.2250 -0.9520
v -0.0067 -0.2250 -0.9192
v -0.0502 -0.2250 -0.8277
v -0.1536 -0.2250 -0.6947
v -0.3168 -0.2250 -0.5380
v -0.5150 -0.2250 -0.3676
v -0.7066 -0.2250 -0.1841
v -0.8453 -0.2250 0.0148
v -0.8960 -0.2250 0.2240
v -0.8453 -0.2250 0.4233
v -0.7066 -0.2250 0.5801
v -0.5150 -0.2250 0.6611
v -0.3168 -0.2250 0.6500
v -0.1536 -0.2250 0.5596
v -0.0502 -0.2250 0.4317
v -0.0067 -0.2250 0.3226
v 0.0000 -0.2250 0.2000
v 0.0000 0.2250 0.2000
f 1 2 34 33
f 2 3 35 34
f 3 4 36 35
f 4 5 37 36
f 5 6 38 37
f 6 7 39 38
f 7 8 40 39
f 8 9 41 40
f 9 10 42 41
f 10 11 43 42
f 11 12 44 43
f 12 13 45 44
f 13 14 46 45
f 14 15 47 46
f 15 16 48 47
f 16 17 49 48
f 17 18 50 49
f 18 19 51 50
f 19 20 52 51
f 20 21 53 52
f 21 22 54 53
f 22 23 55 54
f 23 24 56 55
f 24 25 57 56
f 25 26 58 57
f 26 27 59 58
f 27 28 60 59
f 28 29 61 60
f 29 30 62 61
f 30 31 63 62
f 31 32 64 63
f 32 1 33 64
f 33 34 66 65
f 34 35 67 66
f 35 36 68 67
f 36 37 69 68
f 37 38 70 69
f 38 39 71 70
f 39 40 72 71
f 40 41 73 72
f 41 42 74 73
f 42 43 75 74
f 43 44 76 75
f 44 45 77 76
f 45 46 78 77
f 46 47 79 78
f 47 48 80 79
f 48 49 81 80
f 49 50 82 81
f 50 51 83 82
f 51 52 84 83
f 52 53 85 84
f 53 54 86 85
f 54 55 87 86
f 55 56 88 87
f 56 57 89 88
f 57 58 90 89
f 58 59 91 90
f 59 60 92 91
f 60 61 93 92
f 61 62 94 93
f 62 63 95 94
f 63 64 96 95
f 64 33 65 96
f 65 66 98 97
f 66 67 99 98
f 67 68 100 99
f 68 69 101 100
f 69 70 102 101
f 70 71 103 102
f 71 72 104 103
f 72 73 105 104
f 73 74 106 105
f 74 75 107 106
f 75 76 108 107
f 76 77 109 108
f 77 78 110 109
f 78 79 111 110
f 79 80 112 111
f 80 81 113 112
f 81 82 114 113
f 82 83 115 114
f 83 84 116 115
f 84 85 117 116
f 85 86 118 117
f 86 87 119 118
f 87 88 120 119
f 88 89 121 120
f 89 90 122 121
f 90 91 123 122
f 91 92 124 123
f 92 93 125 124
f 93 94 126 125
f 94 95 127 126
f 95 96 128 127
f 96 65 97 128
f 97 98 130 129
f 98 99 131 130
f 99 100 132 131
f 100 101 133 132
f 101 102 134 133
f 102 103 135 134
f 103 104 136 135
f 104 105 137 136
f 105 106 138 137
f 106 107 139 138
f 107 108 140 139
f 108 109 141 140
f 109 110 142 141
f 110 111 143 142
f 111 112 144 143
f 112 113 145 144
f 113 114 146 145
f 114 115 147 146
f 115 116 148 147
f 116 117 149 148
f 117 118 150 149
f 118 119 151 150
f 119 120 152 151
f 120 121 153 152
f 121 122 154 153
f 122 123 155 154
f 123 124 156 155
f 124 125 157 156
f 125 126 158 157
f 126 127 159 158
f 127 128 160 159
f 128 97 129 160
f 129 130 162 161
f 130 131 163 162
f 131 132 164 163
f 132 133 165 164
f 133 134 166 165
f 134 135 167 166
f 135 136 168 167
f 136 137 169 168
f 137 138 170 169
f 138 139 171 170
f 139 140 172 171
f 140 141 173 172
f 141 142 174 173
f 142 143 175 174
f 143 144 176 175
f 144 145 177 176
f 145 146 178 177
f 146 147 179 178
f 147 148 180 179
f 148 149 181 180
f 149 150 182 181
f 150 151 183 182
f 151 152 184 183
f 152 153 185 184
f 153 154 186 185
f 154 155 187 186
f 155 156 188 187
f 156 157 189 188
f 157 158 190 189
f 158 159 191 190
f 159 160 192 191
f 160 129 161 192
f 161 162 194 193
f 162 163 195 194
f 163 164 196 195
f 164 165 197 196
f 165 166 198 197
f 166 167 199 198
f 167 168 200 199
f 168 169 201 200
f 169 170 202 201
f 170 171 203 202
f 171 172 204 203
f 172 173 205 204
f 173 174 206 205
f 174 175 207 206
f 175 176 208 207
f 176 177 209 208
f 177 178 210 209
f 178 179 211 210
f 179 180 212 211
f 180 181 213 212
f 181 182 214 213
f 182 183 215 214
f 183 184 216 215
f 184 185 217 216
f 185 186 218 217
f 186 187 219 218
f 187 188 220 219
f 188 189 221 220
f 189 190 222 221
f 190 191 223 222
f 191 192 224 223
f 192 161 193 224
f 193 194 226 225
f 194 195 227 226
f 195 196 228 227
f 196 197 229 228
f 197 198 230 229
f 198 199 231 230
f 199 200 232 231
f 200 201 233 232
f 201 202 234 233
f 202 203 235 234
f 203 204 236 235
f 204 205 237 236
f 205 206 238 237
f 206 207 239 238
f 207 208 240 239
f 208 209 241 240
f 209 210 242 241
f 210 211 243 242
f 211 212 244 243
f 212 213 245 244
f 213 214 246 245
f 214 215 247 246
f 215 216 248 247
f 216 217 249 248
f 217 218 250 249
f 218 219 251 250
f 219 220 252 251
f 220 221 253 252
f 221 222 254 253
f 222 223 255 254
f 223 224 256 255
f 224 193 225 256
f 257 1 2
f 257 2 3
f 257 3 4
f 257 4 5
f 257 5 6
f 257 6 7
f 257 7 8
f 257 8 9
f 257 9 10
f 257 10 11
f 257 11 12
f 257 12 13
f 257 13 14
f 257 14 15
f 257 15 16
f 257 16 17
f 257 17 18
f 257 18 19
f 257 19 20
f 257 20 21
f 257 21 22
f 257 22 23
f 257 23 24
f 257 24 25
f 257 25 26
f 257 26 27
f 257 27 28
f 257 28 29
f 257 29 30
f 257 30 31
f 257 31 32
f 257 32 1
f 258 226 225
f 258 227 226
f 258 228 227
f 258 229 228
f 258 230 229
f 258 231 230
f 258 232 231
f 258 233 232
f 258 234 233
f 258 235 234
f 258 236 235
f 258 237 236
f 258 238 237
f 258 239 238
f 258 240 239
f 258 241 240
f 258 242 241
f 258 243 242
f 258 244 243
f 258 245 244
f 258 246 245
f 258 247 246
f 258 248 247
f 258 249 248
f 258 250 249
f 258 251 250
f 258 252 251
f 258 253 252
f 258 254 253
f 258 255 254
f 258 256 255
f 258 225 256
